<svg width="256px" height="256px" viewBox="-2 -2 24.00 24.00" xmlns="http://www.w3.org/2000/svg" fill="#ffffff"><g id="SVGRepo_bgCarrier" stroke-width="0" transform="translate(2.0999999999999996,2.0999999999999996), scale(0.79)"><rect x="-2" y="-2" width="24.00" height="24.00" rx="12" fill="#404040" strokewidth="0"></rect></g><g id="SVGRepo_tracerCarrier" stroke-linecap="round" stroke-linejoin="round" stroke="#CCCCCC" stroke-width="0.16"></g><g id="SVGRepo_iconCarrier"> <g id="user-circle-2" transform="translate(-2 -2)"> <path id="secondary" fill="#ca8a04" d="M12,3A9,9,0,0,0,5.55,18.27a7,7,0,0,1,4.28-3.92h0a4,4,0,1,1,4.34,0h0a7,7,0,0,1,4.28,3.92A9,9,0,0,0,12,3Z"></path> <path id="primary" d="M16,11a4,4,0,1,1-4-4A4,4,0,0,1,16,11Zm-1.83,3.35a3.95,3.95,0,0,1-4.34,0,7,7,0,0,0-4.28,3.92,9,9,0,0,0,12.81.09l.09-.09a7,7,0,0,0-4.28-3.92ZM21,12h0a9,9,0,0,0-9-9h0a9,9,0,0,0-9,9H3a9,9,0,0,0,9,9h0a9,9,0,0,0,9-9Z" fill="none" stroke="#171717" stroke-linecap="round" stroke-linejoin="round" stroke-width="1.12"></path> </g> </g></svg>  